<svg xmlns="http://www.w3.org/2000/svg" xmlns:xlink="http://www.w3.org/1999/xlink" width="90" zoomAndPan="magnify" viewBox="0 0 67.5 67.499996" height="90" preserveAspectRatio="xMidYMid meet" version="1.0"><path fill="rgb(100%, 23.919678%, 0%)" d="M 47.886719 33.824219 C 47.886719 34.75 47.796875 35.664062 47.617188 36.570312 C 47.4375 37.476562 47.171875 38.355469 46.816406 39.207031 C 46.464844 40.0625 46.03125 40.871094 45.519531 41.640625 C 45.003906 42.40625 44.421875 43.117188 43.769531 43.769531 C 43.117188 44.421875 42.40625 45.003906 41.640625 45.519531 C 40.871094 46.03125 40.0625 46.464844 39.207031 46.816406 C 38.355469 47.171875 37.476562 47.4375 36.570312 47.617188 C 35.664062 47.796875 34.75 47.886719 33.824219 47.886719 C 32.902344 47.886719 31.988281 47.796875 31.082031 47.617188 C 30.175781 47.4375 29.296875 47.171875 28.445312 46.816406 C 27.589844 46.464844 26.78125 46.03125 26.011719 45.519531 C 25.246094 45.003906 24.535156 44.421875 23.882812 43.769531 C 23.230469 43.117188 22.648438 42.40625 22.132812 41.640625 C 21.621094 40.871094 21.1875 40.0625 20.835938 39.207031 C 20.480469 38.355469 20.214844 37.476562 20.035156 36.570312 C 19.855469 35.664062 19.761719 34.75 19.761719 33.824219 C 19.761719 32.902344 19.855469 31.988281 20.035156 31.082031 C 20.214844 30.175781 20.480469 29.296875 20.835938 28.445312 C 21.1875 27.589844 21.621094 26.78125 22.132812 26.011719 C 22.648438 25.246094 23.230469 24.535156 23.882812 23.882812 C 24.535156 23.230469 25.246094 22.648438 26.011719 22.132812 C 26.78125 21.621094 27.589844 21.1875 28.445312 20.835938 C 29.296875 20.480469 30.175781 20.214844 31.082031 20.035156 C 31.988281 19.855469 32.902344 19.761719 33.824219 19.761719 C 34.75 19.761719 35.664062 19.855469 36.570312 20.035156 C 37.476562 20.214844 38.355469 20.480469 39.207031 20.835938 C 40.0625 21.1875 40.871094 21.621094 41.640625 22.132812 C 42.40625 22.648438 43.117188 23.230469 43.769531 23.882812 C 44.421875 24.535156 45.003906 25.246094 45.519531 26.011719 C 46.03125 26.78125 46.464844 27.589844 46.816406 28.445312 C 47.171875 29.296875 47.4375 30.175781 47.617188 31.082031 C 47.796875 31.988281 47.886719 32.902344 47.886719 33.824219 Z M 47.886719 33.824219 " fill-opacity="1" fill-rule="nonzero"/><path fill="rgb(86.669922%, 17.248535%, 0%)" d="M 33.824219 19.761719 L 33.820312 19.761719 C 39.71875 21.722656 43.980469 27.265625 43.980469 33.824219 C 43.980469 40.382812 39.71875 45.925781 33.816406 47.886719 L 33.824219 47.886719 C 41.59375 47.886719 47.886719 41.59375 47.886719 33.824219 C 47.886719 26.058594 41.59375 19.761719 33.824219 19.761719 Z M 33.824219 19.761719 " fill-opacity="1" fill-rule="nonzero"/><path fill="rgb(100%, 100%, 100%)" d="M 37.730469 33.824219 C 37.730469 31.667969 35.984375 29.917969 33.824219 29.917969 C 31.667969 29.917969 29.917969 31.667969 29.917969 33.824219 L 19.761719 33.824219 C 19.761719 41.59375 26.058594 47.886719 33.824219 47.886719 C 41.59375 47.886719 47.886719 41.59375 47.886719 33.824219 Z M 37.730469 33.824219 " fill-opacity="1" fill-rule="nonzero"/><path fill="rgb(81.17981%, 84.709167%, 86.268616%)" d="M 43.980469 33.824219 C 43.980469 40.382812 39.71875 45.925781 33.816406 47.886719 L 33.824219 47.886719 C 41.59375 47.886719 47.886719 41.59375 47.886719 33.824219 Z M 43.980469 33.824219 " fill-opacity="1" fill-rule="nonzero"/><path fill="rgb(21.569824%, 27.839661%, 30.979919%)" d="M 33.824219 20.542969 C 41.148438 20.542969 47.105469 26.503906 47.105469 33.824219 C 47.105469 41.148438 41.148438 47.105469 33.824219 47.105469 C 26.503906 47.105469 20.542969 41.148438 20.542969 33.824219 C 20.542969 26.503906 26.503906 20.542969 33.824219 20.542969 M 33.824219 18.980469 C 25.628906 18.980469 18.980469 25.628906 18.980469 33.824219 C 18.980469 42.023438 25.628906 48.667969 33.824219 48.667969 C 42.023438 48.667969 48.667969 42.023438 48.667969 33.824219 C 48.667969 25.628906 42.023438 18.980469 33.824219 18.980469 Z M 33.824219 18.980469 " fill-opacity="1" fill-rule="nonzero"/><path fill="rgb(21.569824%, 27.839661%, 30.979919%)" d="M 19.761719 33.042969 L 29.917969 33.042969 L 29.917969 34.605469 L 19.761719 34.605469 Z M 19.761719 33.042969 " fill-opacity="1" fill-rule="nonzero"/><path fill="rgb(21.569824%, 27.839661%, 30.979919%)" d="M 37.730469 33.042969 L 47.886719 33.042969 L 47.886719 34.605469 L 37.730469 34.605469 Z M 37.730469 33.042969 " fill-opacity="1" fill-rule="nonzero"/><path fill="rgb(21.569824%, 27.839661%, 30.979919%)" d="M 33.824219 30.699219 C 35.550781 30.699219 36.949219 32.101562 36.949219 33.824219 C 36.949219 35.550781 35.550781 36.949219 33.824219 36.949219 C 32.101562 36.949219 30.699219 35.550781 30.699219 33.824219 C 30.699219 32.101562 32.101562 30.699219 33.824219 30.699219 M 33.824219 29.136719 C 31.238281 29.136719 29.136719 31.238281 29.136719 33.824219 C 29.136719 36.414062 31.238281 38.511719 33.824219 38.511719 C 36.414062 38.511719 38.511719 36.414062 38.511719 33.824219 C 38.511719 31.238281 36.414062 29.136719 33.824219 29.136719 Z M 33.824219 29.136719 " fill-opacity="1" fill-rule="nonzero"/><path fill="rgb(21.569824%, 27.839661%, 30.979919%)" d="M 35.386719 33.824219 C 35.386719 34.035156 35.347656 34.234375 35.269531 34.425781 C 35.191406 34.617188 35.078125 34.785156 34.929688 34.929688 C 34.785156 35.078125 34.617188 35.191406 34.425781 35.269531 C 34.234375 35.347656 34.035156 35.386719 33.824219 35.386719 C 33.617188 35.386719 33.417969 35.347656 33.226562 35.269531 C 33.035156 35.191406 32.867188 35.078125 32.722656 34.929688 C 32.574219 34.785156 32.460938 34.617188 32.382812 34.425781 C 32.304688 34.234375 32.261719 34.035156 32.261719 33.824219 C 32.261719 33.617188 32.304688 33.417969 32.382812 33.226562 C 32.460938 33.035156 32.574219 32.867188 32.722656 32.722656 C 32.867188 32.574219 33.035156 32.460938 33.226562 32.382812 C 33.417969 32.304688 33.617188 32.261719 33.824219 32.261719 C 34.035156 32.261719 34.234375 32.304688 34.425781 32.382812 C 34.617188 32.460938 34.785156 32.574219 34.929688 32.722656 C 35.078125 32.867188 35.191406 33.035156 35.269531 33.226562 C 35.347656 33.417969 35.386719 33.617188 35.386719 33.824219 Z M 35.386719 33.824219 " fill-opacity="1" fill-rule="nonzero"/></svg>